<svg width="250" height="85" viewBox="0 0 250 85" fill="none" xmlns="http://www.w3.org/2000/svg">
<path d="M60.1465 20.8089C60.4898 20.3542 60.4004 19.7055 59.934 19.3783C54.3942 15.4919 47.6751 13.6239 40.9044 14.1078C33.7901 14.6162 27.1014 17.687 22.0784 22.7507C17.0554 27.8144 14.0387 34.5276 13.5877 41.6458C13.1584 48.4202 15.0807 55.124 19.0116 60.6323C19.3426 61.0961 19.9919 61.1803 20.4439 60.8332C20.8958 60.4862 20.9791 59.8396 20.6493 59.3749C17.0218 54.2634 15.2493 48.0524 15.6469 41.7763C16.0664 35.1564 18.8719 28.9131 23.5433 24.2038C28.2147 19.4946 34.4352 16.6388 41.0515 16.1659C47.3241 15.7176 53.5492 17.4399 58.6898 21.0261C59.1572 21.3521 59.8031 21.2636 60.1465 20.8089Z" fill="#383489"/>
<path d="M25.0921 64.7021C24.7488 65.1568 24.8382 65.8053 25.3038 66.1338C30.9737 70.1338 37.7859 72.1692 44.6274 71.8885C51.8075 71.5939 58.5482 68.7676 63.636 63.9184C68.7239 59.0693 71.8247 52.5157 72.3803 45.4374C72.9101 38.6879 71.0924 31.884 67.2434 26.14C66.9303 25.6727 66.2958 25.5619 65.8313 25.8792C65.3514 26.2071 65.237 26.8648 65.5586 27.349C69.093 32.6701 70.7597 38.9584 70.27 45.1969C69.7533 51.7797 66.8695 57.8745 62.1378 62.3842C57.4061 66.894 51.1373 69.5224 44.4598 69.7964C38.121 70.0565 31.8091 68.1786 26.5479 64.486C26.0815 64.1587 25.4355 64.2473 25.0921 64.7021Z" fill="#383489"/>
<mask id="path-3-inside-1_167_336" fill="white">
<path fill-rule="evenodd" clip-rule="evenodd" d="M28.2362 40.3371V52.7001C28.2362 53.0844 28.3652 53.497 28.67 53.8975C28.97 54.2916 29.4755 54.7058 30.1707 55.0926C32.5238 56.4009 37.2604 57.5546 42.719 57.5546C48.1776 57.5546 52.9142 56.4009 55.2666 55.0926C55.9624 54.7058 56.4679 54.2916 56.7679 53.8975C57.0721 53.497 57.2017 53.0844 57.2017 52.7001V40.3371L59.9604 38.8921V50.8157C59.1569 51.1482 58.581 52.0479 58.581 53.1046V56.341C58.581 56.7876 58.89 57.1501 59.2707 57.1501H62.0293C62.41 57.1501 62.719 56.7876 62.719 56.341V53.1046C62.719 52.0479 62.1431 51.1482 61.3397 50.8157V38.1704L62.3107 37.6615C62.559 37.5312 62.719 37.2423 62.719 36.9228C62.719 36.6032 62.559 36.3143 62.3107 36.1841L43.0004 26.0704C42.8211 25.9765 42.6169 25.9765 42.4376 26.0704L23.1273 36.1841C22.879 36.3143 22.719 36.6032 22.719 36.9228C22.719 37.2423 22.879 37.5312 23.1273 37.6615L28.2362 40.3371ZM55.8224 41.0597L43.0004 47.7751C42.8211 47.869 42.6169 47.869 42.4376 47.7751L29.6155 41.0597V52.679C29.6293 52.7033 29.7135 52.8449 29.7914 52.9283C30.0135 53.1661 30.3438 53.3983 30.7618 53.6305C33.0024 54.8765 37.5197 55.9365 42.719 55.9365C47.9183 55.9365 52.4355 54.8765 54.6762 53.6305C55.0942 53.3983 55.4238 53.1661 55.6466 52.9283C55.7245 52.8449 55.8086 52.7033 55.8224 52.679V41.0597ZM61.3397 53.1046V55.5319H59.9604V53.1046C59.9604 52.658 60.2693 52.2955 60.65 52.2955C61.0307 52.2955 61.3397 52.658 61.3397 53.1046ZM42.719 46.1505L60.3376 36.9228L42.719 27.695L25.1004 36.9228L42.719 46.1505Z"/>
</mask>
<path fill-rule="evenodd" clip-rule="evenodd" d="M28.2362 40.3371V52.7001C28.2362 53.0844 28.3652 53.497 28.67 53.8975C28.97 54.2916 29.4755 54.7058 30.1707 55.0926C32.5238 56.4009 37.2604 57.5546 42.719 57.5546C48.1776 57.5546 52.9142 56.4009 55.2666 55.0926C55.9624 54.7058 56.4679 54.2916 56.7679 53.8975C57.0721 53.497 57.2017 53.0844 57.2017 52.7001V40.3371L59.9604 38.8921V50.8157C59.1569 51.1482 58.581 52.0479 58.581 53.1046V56.341C58.581 56.7876 58.89 57.1501 59.2707 57.1501H62.0293C62.41 57.1501 62.719 56.7876 62.719 56.341V53.1046C62.719 52.0479 62.1431 51.1482 61.3397 50.8157V38.1704L62.3107 37.6615C62.559 37.5312 62.719 37.2423 62.719 36.9228C62.719 36.6032 62.559 36.3143 62.3107 36.1841L43.0004 26.0704C42.8211 25.9765 42.6169 25.9765 42.4376 26.0704L23.1273 36.1841C22.879 36.3143 22.719 36.6032 22.719 36.9228C22.719 37.2423 22.879 37.5312 23.1273 37.6615L28.2362 40.3371ZM55.8224 41.0597L43.0004 47.7751C42.8211 47.869 42.6169 47.869 42.4376 47.7751L29.6155 41.0597V52.679C29.6293 52.7033 29.7135 52.8449 29.7914 52.9283C30.0135 53.1661 30.3438 53.3983 30.7618 53.6305C33.0024 54.8765 37.5197 55.9365 42.719 55.9365C47.9183 55.9365 52.4355 54.8765 54.6762 53.6305C55.0942 53.3983 55.4238 53.1661 55.6466 52.9283C55.7245 52.8449 55.8086 52.7033 55.8224 52.679V41.0597ZM61.3397 53.1046V55.5319H59.9604V53.1046C59.9604 52.658 60.2693 52.2955 60.65 52.2955C61.0307 52.2955 61.3397 52.658 61.3397 53.1046ZM42.719 46.1505L60.3376 36.9228L42.719 27.695L25.1004 36.9228L42.719 46.1505Z" fill="#383489"/>
<path d="M28.2362 40.3371H58.2362V22.1835L42.1546 13.7612L28.2362 40.3371ZM28.67 53.8975L4.79799 72.0669L4.80087 72.0707L28.67 53.8975ZM30.1707 55.0926L15.5859 81.3086L15.5927 81.3124L30.1707 55.0926ZM55.2666 55.0926L40.6928 28.8704L40.6853 28.8745L55.2666 55.0926ZM56.7679 53.8975L80.6371 72.0707L80.6485 72.0558L80.6598 72.0408L56.7679 53.8975ZM57.2017 40.3371L43.2812 13.7624L27.2017 22.1852V40.3371H57.2017ZM59.9604 38.8921H89.9604V-10.6894L46.0398 12.3173L59.9604 38.8921ZM59.9604 50.8157L71.4332 78.5353L89.9604 70.8671V50.8157H59.9604ZM61.3397 50.8157H31.3397V70.8671L49.8669 78.5353L61.3397 50.8157ZM61.3397 38.1704L47.4131 11.5988L31.3397 20.0231V38.1704H61.3397ZM62.3107 37.6615L76.2373 64.2331L76.2489 64.2269L62.3107 37.6615ZM62.3107 36.1841L76.2489 9.61857L76.2392 9.61348L76.2295 9.6084L62.3107 36.1841ZM43.0004 26.0704L56.9192 -0.505268L56.9125 -0.508793L43.0004 26.0704ZM42.4376 26.0704L28.5255 -0.508793L28.5188 -0.505272L42.4376 26.0704ZM23.1273 36.1841L9.20844 9.60839L9.19873 9.61348L9.18903 9.61857L23.1273 36.1841ZM23.1273 37.6615L9.18903 64.2269L9.19895 64.2321L9.20887 64.2373L23.1273 37.6615ZM55.8224 41.0597H85.8224V-8.51822L41.9036 14.484L55.8224 41.0597ZM43.0004 47.7751L56.9125 74.3543L56.9192 74.3508L43.0004 47.7751ZM42.4376 47.7751L28.5188 74.3508L28.5255 74.3543L42.4376 47.7751ZM29.6155 41.0597L43.5344 14.484L-0.384459 -8.51818V41.0597H29.6155ZM29.6155 52.679H-0.384459V60.6075L3.53264 67.5007L29.6155 52.679ZM29.7914 52.9283L51.7206 32.4561L51.712 32.4468L51.7034 32.4376L29.7914 52.9283ZM30.7618 53.6305L45.3416 27.4117L45.3323 27.4065L30.7618 53.6305ZM54.6762 53.6305L40.1057 27.4065L40.0964 27.4117L54.6762 53.6305ZM55.6466 52.9283L77.5441 73.4343L77.5513 73.4266L77.5585 73.4189L55.6466 52.9283ZM55.8224 52.679L81.9053 67.5007L85.8224 60.6075V52.679H55.8224ZM61.3397 55.5319V85.5319H91.3397V55.5319H61.3397ZM59.9604 55.5319H29.9604V85.5319H59.9604V55.5319ZM42.719 46.1505L28.8001 72.7261L42.719 80.0161L56.6379 72.7261L42.719 46.1505ZM60.3376 36.9228L74.2565 63.4984L124.998 36.9228L74.2565 10.3471L60.3376 36.9228ZM42.719 27.695L56.6379 1.11942L42.719 -6.17057L28.8001 1.11943L42.719 27.695ZM25.1004 36.9228L11.1814 10.3471L-39.5598 36.9228L11.1815 63.4984L25.1004 36.9228ZM-1.76377 40.3371V52.7001H58.2362V40.3371H-1.76377ZM-1.76377 52.7001C-1.76377 60.103 0.80242 66.8173 4.79799 72.0669L52.5421 35.7282C55.928 40.1768 58.2362 46.0658 58.2362 52.7001H-1.76377ZM4.80087 72.0707C8.45929 76.8758 12.7469 79.7293 15.5859 81.3086L44.7556 28.8765C45.6529 29.3757 46.7921 30.0923 48.0437 31.0963C49.2538 32.067 50.8996 33.5709 52.5392 35.7244L4.80087 72.0707ZM15.5927 81.3124C23.9624 85.9659 34.3004 87.5546 42.719 87.5546V27.5546C42.0353 27.5546 41.5455 27.4755 41.4231 27.4498C41.375 27.4398 41.5761 27.4774 42.0035 27.6226C42.2253 27.6979 42.5607 27.8201 42.9899 28.0042C43.4097 28.1843 44.0147 28.4646 44.7487 28.8727L15.5927 81.3124ZM42.719 87.5546C51.1362 87.5546 61.4765 85.9664 69.8478 81.3106L40.6853 28.8745C41.42 28.4659 42.0256 28.1853 42.4458 28.005C42.8754 27.8206 43.2111 27.6984 43.4332 27.623C43.8611 27.4776 44.0625 27.4399 44.0146 27.4499C43.8924 27.4754 43.4027 27.5546 42.719 27.5546V87.5546ZM69.8404 81.3148C72.686 79.7332 76.9768 76.8782 80.6371 72.0707L32.8988 35.7244C34.5388 33.5703 36.1856 32.0655 37.3982 31.0931C38.6519 30.0877 39.7934 29.3702 40.6928 28.8704L69.8404 81.3148ZM80.6598 72.0408C84.6182 66.8283 87.2017 60.1294 87.2017 52.7001H27.2017C27.2017 46.0393 29.526 40.1658 32.8761 35.7542L80.6598 72.0408ZM87.2017 52.7001V40.3371H27.2017V52.7001H87.2017ZM71.1223 66.9119L73.8809 65.4668L46.0398 12.3173L43.2812 13.7624L71.1223 66.9119ZM29.9604 38.8921V50.8157H89.9604V38.8921H29.9604ZM48.4876 23.0961C34.7814 28.7689 28.581 41.8485 28.581 53.1046H88.581C88.581 62.2474 83.5324 73.5275 71.4332 78.5353L48.4876 23.0961ZM28.581 53.1046V56.341H88.581V53.1046H28.581ZM28.581 56.341C28.581 68.6836 38.0064 87.1501 59.2707 87.1501V27.1501C79.7736 27.1501 88.581 44.8917 88.581 56.341H28.581ZM59.2707 87.1501H62.0293V27.1501H59.2707V87.1501ZM62.0293 87.1501C83.2936 87.1501 92.719 68.6836 92.719 56.341H32.719C32.719 44.8917 41.5264 27.1501 62.0293 27.1501V87.1501ZM92.719 56.341V53.1046H32.719V56.341H92.719ZM92.719 53.1046C92.719 41.849 86.519 28.7691 72.8125 23.0961L49.8669 78.5353C37.7672 73.5274 32.719 62.2468 32.719 53.1046H92.719ZM91.3397 50.8157V38.1704H31.3397V50.8157H91.3397ZM75.2662 64.742L76.2373 64.2331L48.3841 11.0898L47.4131 11.5988L75.2662 64.742ZM76.2489 64.2269C87.9183 58.1043 92.719 46.5341 92.719 36.9228H32.719C32.719 27.9506 37.1996 16.9581 48.3724 11.096L76.2489 64.2269ZM92.719 36.9228C92.719 27.3114 87.9183 15.7412 76.2489 9.61857L48.3724 62.7495C37.1996 56.8874 32.719 45.8949 32.719 36.9228H92.719ZM76.2295 9.6084L56.9192 -0.505266L29.0815 52.646L48.3918 62.7597L76.2295 9.6084ZM56.9125 -0.508793C48.0192 -5.16374 37.4188 -5.16374 28.5255 -0.508793L56.3497 52.6496C47.8151 57.1168 37.6229 57.1168 29.0883 52.6496L56.9125 -0.508793ZM28.5188 -0.505272L9.20844 9.60839L37.0461 62.7597L56.3564 52.6461L28.5188 -0.505272ZM9.18903 9.61857C-2.48157 15.7418 -7.28101 27.313 -7.28101 36.9228H52.719C52.719 45.8933 48.2396 56.8868 37.0655 62.7495L9.18903 9.61857ZM-7.28101 36.9228C-7.28101 46.5325 -2.48157 58.1037 9.18903 64.2269L37.0655 11.096C48.2396 16.9587 52.719 27.9522 52.719 36.9228H-7.28101ZM9.20887 64.2373L14.3178 66.913L42.1546 13.7612L37.0457 11.0856L9.20887 64.2373ZM41.9036 14.484L29.0815 21.1995L56.9192 74.3508L69.7413 67.6353L41.9036 14.484ZM29.0883 21.1959C37.6229 16.7287 47.8151 16.7287 56.3497 21.1959L28.5255 74.3543C37.4188 79.0092 48.0192 79.0092 56.9125 74.3543L29.0883 21.1959ZM56.3564 21.1994L43.5344 14.484L15.6967 67.6353L28.5188 74.3508L56.3564 21.1994ZM-0.384459 41.0597V52.679H59.6155V41.0597H-0.384459ZM3.53264 67.5007C3.58113 67.5861 5.15388 70.5043 7.87945 73.4189L51.7034 32.4376C52.6598 33.4603 53.3448 34.3408 53.7182 34.8379C54.1277 35.3829 54.4446 35.8454 54.6567 36.1642C55.0415 36.7426 55.3837 37.3035 55.6984 37.8574L3.53264 67.5007ZM7.86222 73.4004C11.196 76.9715 14.6506 78.9985 16.1912 79.8546L45.3323 27.4065C45.8613 27.7004 46.7038 28.1966 47.7071 28.9174C48.6813 29.6173 50.1483 30.7718 51.7206 32.4561L7.86222 73.4004ZM16.182 79.8494C24.5771 84.5178 34.7912 85.9365 42.719 85.9365V25.9365C42.4311 25.9365 42.1691 25.9214 41.9542 25.8999C41.735 25.878 41.6236 25.8554 41.636 25.8579C41.6463 25.86 41.7079 25.8728 41.8198 25.9024C41.9296 25.9314 42.1161 25.984 42.372 26.0697C42.6235 26.1539 42.993 26.2872 43.4587 26.4854C43.9145 26.6795 44.5624 26.9784 45.3416 27.4117L16.182 79.8494ZM42.719 85.9365C50.6467 85.9365 60.8609 84.5178 69.256 79.8494L40.0964 27.4117C40.8756 26.9784 41.5235 26.6795 41.9793 26.4854C42.445 26.2872 42.8145 26.1539 43.066 26.0697C43.3219 25.9839 43.5084 25.9314 43.6182 25.9024C43.7301 25.8728 43.7917 25.86 43.8019 25.8579C43.8144 25.8554 43.703 25.878 43.4838 25.8999C43.2688 25.9214 43.0069 25.9365 42.719 25.9365V85.9365ZM69.2468 79.8546C70.8192 78.9809 74.2374 76.9654 77.5441 73.4343L33.7491 32.4222C35.3011 30.7648 36.7494 29.6227 37.7241 28.9221C38.7256 28.2021 39.5689 27.7047 40.1057 27.4065L69.2468 79.8546ZM77.5585 73.4189C80.2841 70.5043 81.8568 67.5861 81.9053 67.5007L29.7395 37.8574C30.0543 37.3035 30.3965 36.7426 30.7813 36.1642C30.9933 35.8454 31.3103 35.3829 31.7198 34.8379C32.0932 34.3408 32.7782 33.4603 33.7346 32.4376L77.5585 73.4189ZM85.8224 52.679V41.0597H25.8224V52.679H85.8224ZM31.3397 53.1046V55.5319H91.3397V53.1046H31.3397ZM61.3397 25.5319H59.9604V85.5319H61.3397V25.5319ZM89.9604 55.5319V53.1046H29.9604V55.5319H89.9604ZM89.9604 53.1046C89.9604 64.5539 81.1529 82.2955 60.65 82.2955V22.2955C39.3857 22.2955 29.9604 40.7621 29.9604 53.1046H89.9604ZM60.65 82.2955C40.1471 82.2955 31.3397 64.5539 31.3397 53.1046H91.3397C91.3397 40.7621 81.9143 22.2955 60.65 22.2955V82.2955ZM56.6379 72.7261L74.2565 63.4984L46.4187 10.3471L28.8001 19.5748L56.6379 72.7261ZM74.2565 10.3471L56.6379 1.11942L28.8001 54.2707L46.4187 63.4984L74.2565 10.3471ZM28.8001 1.11943L11.1814 10.3471L39.0193 63.4984L56.6379 54.2707L28.8001 1.11943ZM11.1815 63.4984L28.8001 72.7261L56.6379 19.5748L39.0193 10.3471L11.1815 63.4984Z" fill="#383489" mask="url(#path-3-inside-1_167_336)"/>
<path d="M86.303 39V27.8H87.999L92.911 35.976H91.999L96.831 27.8H98.527L98.559 39H96.575L96.559 30.888H96.975L92.879 37.72H91.951L87.791 30.888H88.271V39H86.303ZM101.709 39V27.8H110.429V29.512H103.757V32.264H107.069C108.413 32.264 109.432 32.5467 110.125 33.112C110.829 33.6667 111.181 34.4773 111.181 35.544C111.181 36.6427 110.792 37.496 110.013 38.104C109.245 38.7013 108.157 39 106.749 39H101.709ZM103.757 37.4H106.637C107.437 37.4 108.045 37.2453 108.461 36.936C108.877 36.6267 109.085 36.1787 109.085 35.592C109.085 34.44 108.269 33.864 106.637 33.864H103.757V37.4ZM118.659 39.16C117.784 39.16 116.979 39.016 116.243 38.728C115.507 38.44 114.867 38.04 114.323 37.528C113.779 37.0053 113.358 36.3973 113.059 35.704C112.76 35 112.611 34.232 112.611 33.4C112.611 32.568 112.76 31.8053 113.059 31.112C113.358 30.408 113.779 29.8 114.323 29.288C114.867 28.7653 115.507 28.36 116.243 28.072C116.979 27.784 117.779 27.64 118.643 27.64C119.518 27.64 120.318 27.784 121.043 28.072C121.779 28.36 122.419 28.7653 122.963 29.288C123.507 29.8 123.928 30.408 124.227 31.112C124.526 31.8053 124.675 32.568 124.675 33.4C124.675 34.232 124.526 35 124.227 35.704C123.928 36.408 123.507 37.016 122.963 37.528C122.419 38.04 121.779 38.44 121.043 38.728C120.318 39.016 119.523 39.16 118.659 39.16ZM118.643 37.336C119.208 37.336 119.731 37.24 120.211 37.048C120.691 36.856 121.107 36.584 121.459 36.232C121.811 35.8693 122.083 35.4533 122.275 34.984C122.478 34.504 122.579 33.976 122.579 33.4C122.579 32.824 122.478 32.3013 122.275 31.832C122.083 31.352 121.811 30.936 121.459 30.584C121.107 30.2213 120.691 29.944 120.211 29.752C119.731 29.56 119.208 29.464 118.643 29.464C118.078 29.464 117.555 29.56 117.075 29.752C116.606 29.944 116.19 30.2213 115.827 30.584C115.475 30.936 115.198 31.352 114.995 31.832C114.803 32.3013 114.707 32.824 114.707 33.4C114.707 33.9653 114.803 34.488 114.995 34.968C115.198 35.448 115.475 35.8693 115.827 36.232C116.179 36.584 116.595 36.856 117.075 37.048C117.555 37.24 118.078 37.336 118.643 37.336ZM126.728 37.24C127.315 37.4427 127.832 37.496 128.28 37.4C128.728 37.304 129.128 36.9787 129.48 36.424L130.024 35.576L130.232 35.352L134.136 27.8H136.184L131.32 36.84C130.926 37.5973 130.456 38.1733 129.912 38.568C129.368 38.9627 128.782 39.1813 128.152 39.224C127.534 39.2773 126.888 39.16 126.216 38.872L126.728 37.24ZM130.184 37.144L125.192 27.8H127.416L131.32 35.544L130.184 37.144ZM147.439 39.16C146.586 39.16 145.791 39.0213 145.055 38.744C144.33 38.456 143.695 38.056 143.151 37.544C142.618 37.0213 142.202 36.408 141.903 35.704C141.604 35 141.455 34.232 141.455 33.4C141.455 32.568 141.604 31.8 141.903 31.096C142.202 30.392 142.623 29.784 143.167 29.272C143.711 28.7493 144.346 28.3493 145.071 28.072C145.796 27.784 146.591 27.64 147.455 27.64C148.372 27.64 149.21 27.8 149.967 28.12C150.724 28.4293 151.364 28.8933 151.887 29.512L150.543 30.776C150.138 30.3387 149.684 30.0133 149.183 29.8C148.682 29.576 148.138 29.464 147.551 29.464C146.964 29.464 146.426 29.56 145.935 29.752C145.455 29.944 145.034 30.216 144.671 30.568C144.319 30.92 144.042 31.336 143.839 31.816C143.647 32.296 143.551 32.824 143.551 33.4C143.551 33.976 143.647 34.504 143.839 34.984C144.042 35.464 144.319 35.88 144.671 36.232C145.034 36.584 145.455 36.856 145.935 37.048C146.426 37.24 146.964 37.336 147.551 37.336C148.138 37.336 148.682 37.2293 149.183 37.016C149.684 36.792 150.138 36.456 150.543 36.008L151.887 37.288C151.364 37.896 150.724 38.36 149.967 38.68C149.21 39 148.367 39.16 147.439 39.16ZM160.474 37.24L160.01 37.752V27.8H162.058V37.752L161.562 37.24H166.666L166.17 37.752V27.8H168.218V39H153.834V27.8H155.882V37.752L155.402 37.24H160.474ZM175.723 39V27.8H177.435L184.459 36.424H183.611V27.8H185.675V39H183.963L176.939 30.376H177.787V39H175.723ZM187.307 35.352V34.072H192.539V35.352H187.307ZM189.915 32.904C189.35 32.904 188.848 32.792 188.411 32.568C187.974 32.344 187.627 32.0347 187.371 31.64C187.115 31.2453 186.987 30.792 186.987 30.28C186.987 29.7787 187.115 29.336 187.371 28.952C187.627 28.5573 187.974 28.248 188.411 28.024C188.848 27.8 189.35 27.688 189.915 27.688C190.491 27.688 190.998 27.8 191.435 28.024C191.872 28.248 192.214 28.5573 192.459 28.952C192.715 29.336 192.843 29.784 192.843 30.296C192.843 30.7973 192.715 31.2453 192.459 31.64C192.214 32.0347 191.872 32.344 191.435 32.568C190.998 32.792 190.491 32.904 189.915 32.904ZM189.915 31.768C190.384 31.768 190.758 31.6347 191.035 31.368C191.323 31.0907 191.467 30.7333 191.467 30.296C191.467 29.8373 191.323 29.4747 191.035 29.208C190.758 28.9413 190.384 28.808 189.915 28.808C189.456 28.808 189.083 28.9467 188.795 29.224C188.507 29.4907 188.363 29.848 188.363 30.296C188.363 30.7333 188.507 31.0907 188.795 31.368C189.083 31.6347 189.456 31.768 189.915 31.768ZM193.919 36.456V35.016L199.439 27.8H201.663L196.223 35.016L195.183 34.696H204.063V36.456H193.919ZM200.063 39V36.456L200.127 34.696V32.44H202.079V39H200.063Z" fill="#383489"/>
<path d="M90.029 45.7H91.199V52H90.029V45.7ZM86.771 52H85.601V45.7H86.771V52ZM90.119 49.3H86.672V48.301H90.119V49.3ZM92.8402 52V47.194H93.9652V50.362L96.6202 47.194H97.6462V52H96.5212V48.832L93.8752 52H92.8402ZM104.893 52L103.489 49.696L104.407 49.129L106.234 52H104.893ZM102.58 50.074V49.138H104.191V50.074H102.58ZM104.515 49.732L103.453 49.606L104.911 47.194H106.108L104.515 49.732ZM99.8166 52H98.4846L100.303 49.129L101.221 49.696L99.8166 52ZM102.913 52H101.797V47.194H102.913V52ZM102.13 50.074H100.528V49.138H102.13V50.074ZM100.195 49.732L98.6016 47.194H99.7986L101.248 49.606L100.195 49.732ZM109.153 52.063C108.619 52.063 108.151 51.958 107.749 51.748C107.353 51.532 107.044 51.238 106.822 50.866C106.606 50.494 106.498 50.071 106.498 49.597C106.498 49.117 106.603 48.694 106.813 48.328C107.029 47.956 107.323 47.665 107.695 47.455C108.073 47.245 108.502 47.14 108.982 47.14C109.45 47.14 109.867 47.242 110.233 47.446C110.599 47.65 110.887 47.938 111.097 48.31C111.307 48.682 111.412 49.12 111.412 49.624C111.412 49.672 111.409 49.726 111.403 49.786C111.403 49.846 111.4 49.903 111.394 49.957H107.389V49.21H110.8L110.359 49.444C110.365 49.168 110.308 48.925 110.188 48.715C110.068 48.505 109.903 48.34 109.693 48.22C109.489 48.1 109.252 48.04 108.982 48.04C108.706 48.04 108.463 48.1 108.253 48.22C108.049 48.34 107.887 48.508 107.767 48.724C107.653 48.934 107.596 49.183 107.596 49.471V49.651C107.596 49.939 107.662 50.194 107.794 50.416C107.926 50.638 108.112 50.809 108.352 50.929C108.592 51.049 108.868 51.109 109.18 51.109C109.45 51.109 109.693 51.067 109.909 50.983C110.125 50.899 110.317 50.767 110.485 50.587L111.088 51.28C110.872 51.532 110.599 51.727 110.269 51.865C109.945 51.997 109.573 52.063 109.153 52.063ZM112.642 52V47.194H116.332V48.148H113.506L113.767 47.896V52H112.642ZM119.082 52.063C118.59 52.063 118.152 51.958 117.768 51.748C117.384 51.532 117.081 51.238 116.859 50.866C116.637 50.494 116.526 50.071 116.526 49.597C116.526 49.117 116.637 48.694 116.859 48.328C117.081 47.956 117.384 47.665 117.768 47.455C118.152 47.245 118.59 47.14 119.082 47.14C119.58 47.14 120.021 47.245 120.405 47.455C120.795 47.665 121.098 47.953 121.314 48.319C121.536 48.685 121.647 49.111 121.647 49.597C121.647 50.071 121.536 50.494 121.314 50.866C121.098 51.238 120.795 51.532 120.405 51.748C120.021 51.958 119.58 52.063 119.082 52.063ZM119.082 51.1C119.358 51.1 119.604 51.04 119.82 50.92C120.036 50.8 120.204 50.626 120.324 50.398C120.45 50.17 120.513 49.903 120.513 49.597C120.513 49.285 120.45 49.018 120.324 48.796C120.204 48.568 120.036 48.394 119.82 48.274C119.604 48.154 119.361 48.094 119.091 48.094C118.815 48.094 118.569 48.154 118.353 48.274C118.143 48.394 117.975 48.568 117.849 48.796C117.723 49.018 117.66 49.285 117.66 49.597C117.66 49.903 117.723 50.17 117.849 50.398C117.975 50.626 118.143 50.8 118.353 50.92C118.569 51.04 118.812 51.1 119.082 51.1ZM125.422 52.063C125.032 52.063 124.675 51.973 124.351 51.793C124.033 51.613 123.778 51.343 123.586 50.983C123.4 50.617 123.307 50.155 123.307 49.597C123.307 49.033 123.397 48.571 123.577 48.211C123.763 47.851 124.015 47.584 124.333 47.41C124.651 47.23 125.014 47.14 125.422 47.14C125.896 47.14 126.313 47.242 126.673 47.446C127.039 47.65 127.327 47.935 127.537 48.301C127.753 48.667 127.861 49.099 127.861 49.597C127.861 50.095 127.753 50.53 127.537 50.902C127.327 51.268 127.039 51.553 126.673 51.757C126.313 51.961 125.896 52.063 125.422 52.063ZM122.758 53.746V47.194H123.829V48.328L123.793 49.606L123.883 50.884V53.746H122.758ZM125.296 51.1C125.566 51.1 125.806 51.04 126.016 50.92C126.232 50.8 126.403 50.626 126.529 50.398C126.655 50.17 126.718 49.903 126.718 49.597C126.718 49.285 126.655 49.018 126.529 48.796C126.403 48.568 126.232 48.394 126.016 48.274C125.806 48.154 125.566 48.094 125.296 48.094C125.026 48.094 124.783 48.154 124.567 48.274C124.351 48.394 124.18 48.568 124.054 48.796C123.928 49.018 123.865 49.285 123.865 49.597C123.865 49.903 123.928 50.17 124.054 50.398C124.18 50.626 124.351 50.8 124.567 50.92C124.783 51.04 125.026 51.1 125.296 51.1ZM131.123 52.063C130.631 52.063 130.193 51.958 129.809 51.748C129.425 51.532 129.122 51.238 128.9 50.866C128.678 50.494 128.567 50.071 128.567 49.597C128.567 49.117 128.678 48.694 128.9 48.328C129.122 47.956 129.425 47.665 129.809 47.455C130.193 47.245 130.631 47.14 131.123 47.14C131.621 47.14 132.062 47.245 132.446 47.455C132.836 47.665 133.139 47.953 133.355 48.319C133.577 48.685 133.688 49.111 133.688 49.597C133.688 50.071 133.577 50.494 133.355 50.866C133.139 51.238 132.836 51.532 132.446 51.748C132.062 51.958 131.621 52.063 131.123 52.063ZM131.123 51.1C131.399 51.1 131.645 51.04 131.861 50.92C132.077 50.8 132.245 50.626 132.365 50.398C132.491 50.17 132.554 49.903 132.554 49.597C132.554 49.285 132.491 49.018 132.365 48.796C132.245 48.568 132.077 48.394 131.861 48.274C131.645 48.154 131.402 48.094 131.132 48.094C130.856 48.094 130.61 48.154 130.394 48.274C130.184 48.394 130.016 48.568 129.89 48.796C129.764 49.018 129.701 49.285 129.701 49.597C129.701 49.903 129.764 50.17 129.89 50.398C130.016 50.626 130.184 50.8 130.394 50.92C130.61 51.04 130.853 51.1 131.123 51.1ZM138.04 51.478V48.148H136.195L136.168 48.922C136.156 49.198 136.138 49.465 136.114 49.723C136.09 49.975 136.051 50.209 135.997 50.425C135.943 50.635 135.865 50.809 135.763 50.947C135.661 51.085 135.526 51.175 135.358 51.217L134.242 51.046C134.422 51.046 134.566 50.989 134.674 50.875C134.788 50.755 134.875 50.593 134.935 50.389C135.001 50.179 135.049 49.942 135.079 49.678C135.109 49.408 135.13 49.129 135.142 48.841L135.205 47.194H139.165V51.478H138.04ZM134.071 53.071V51.046H139.876V53.071H138.823V52H135.115V53.071H134.071ZM143.068 52.063C142.564 52.063 142.114 51.958 141.718 51.748C141.328 51.532 141.022 51.238 140.8 50.866C140.578 50.494 140.467 50.071 140.467 49.597C140.467 49.117 140.578 48.694 140.8 48.328C141.022 47.956 141.328 47.665 141.718 47.455C142.114 47.245 142.564 47.14 143.068 47.14C143.536 47.14 143.947 47.236 144.301 47.428C144.661 47.614 144.934 47.89 145.12 48.256L144.256 48.76C144.112 48.532 143.935 48.364 143.725 48.256C143.521 48.148 143.299 48.094 143.059 48.094C142.783 48.094 142.534 48.154 142.312 48.274C142.09 48.394 141.916 48.568 141.79 48.796C141.664 49.018 141.601 49.285 141.601 49.597C141.601 49.909 141.664 50.179 141.79 50.407C141.916 50.629 142.09 50.8 142.312 50.92C142.534 51.04 142.783 51.1 143.059 51.1C143.299 51.1 143.521 51.046 143.725 50.938C143.935 50.83 144.112 50.662 144.256 50.434L145.12 50.938C144.934 51.298 144.661 51.577 144.301 51.775C143.947 51.967 143.536 52.063 143.068 52.063ZM149.558 52L147.821 49.696L148.739 49.129L150.881 52H149.558ZM146.111 52V47.194H147.236V52H146.111ZM146.903 50.074V49.138H148.532V50.074H146.903ZM148.847 49.732L147.794 49.606L149.558 47.194H150.764L148.847 49.732ZM154.502 52V51.028L154.439 50.821V49.12C154.439 48.79 154.34 48.535 154.142 48.355C153.944 48.169 153.644 48.076 153.242 48.076C152.972 48.076 152.705 48.118 152.441 48.202C152.183 48.286 151.964 48.403 151.784 48.553L151.343 47.734C151.601 47.536 151.907 47.389 152.261 47.293C152.621 47.191 152.993 47.14 153.377 47.14C154.073 47.14 154.61 47.308 154.988 47.644C155.372 47.974 155.564 48.487 155.564 49.183V52H154.502ZM152.99 52.063C152.63 52.063 152.315 52.003 152.045 51.883C151.775 51.757 151.565 51.586 151.415 51.37C151.271 51.148 151.199 50.899 151.199 50.623C151.199 50.353 151.262 50.11 151.388 49.894C151.52 49.678 151.733 49.507 152.027 49.381C152.321 49.255 152.711 49.192 153.197 49.192H154.592V49.939H153.278C152.894 49.939 152.636 50.002 152.504 50.128C152.372 50.248 152.306 50.398 152.306 50.578C152.306 50.782 152.387 50.944 152.549 51.064C152.711 51.184 152.936 51.244 153.224 51.244C153.5 51.244 153.746 51.181 153.962 51.055C154.184 50.929 154.343 50.743 154.439 50.497L154.628 51.172C154.52 51.454 154.325 51.673 154.043 51.829C153.767 51.985 153.416 52.063 152.99 52.063ZM160.007 52V50.362L160.169 50.551H158.729C158.069 50.551 157.55 50.413 157.172 50.137C156.8 49.855 156.614 49.45 156.614 48.922C156.614 48.358 156.812 47.929 157.208 47.635C157.61 47.341 158.144 47.194 158.81 47.194H161.015V52H160.007ZM156.551 52L157.847 50.164H158.999L157.757 52H156.551ZM160.007 50.002V47.842L160.169 48.139H158.846C158.498 48.139 158.228 48.205 158.036 48.337C157.85 48.463 157.757 48.67 157.757 48.958C157.757 49.498 158.108 49.768 158.81 49.768H160.169L160.007 50.002ZM167.158 52.063C166.666 52.063 166.228 51.958 165.844 51.748C165.46 51.532 165.157 51.238 164.935 50.866C164.713 50.494 164.602 50.071 164.602 49.597C164.602 49.117 164.713 48.694 164.935 48.328C165.157 47.956 165.46 47.665 165.844 47.455C166.228 47.245 166.666 47.14 167.158 47.14C167.656 47.14 168.097 47.245 168.481 47.455C168.871 47.665 169.174 47.953 169.39 48.319C169.612 48.685 169.723 49.111 169.723 49.597C169.723 50.071 169.612 50.494 169.39 50.866C169.174 51.238 168.871 51.532 168.481 51.748C168.097 51.958 167.656 52.063 167.158 52.063ZM167.158 51.1C167.434 51.1 167.68 51.04 167.896 50.92C168.112 50.8 168.28 50.626 168.4 50.398C168.526 50.17 168.589 49.903 168.589 49.597C168.589 49.285 168.526 49.018 168.4 48.796C168.28 48.568 168.112 48.394 167.896 48.274C167.68 48.154 167.437 48.094 167.167 48.094C166.891 48.094 166.645 48.154 166.429 48.274C166.219 48.394 166.051 48.568 165.925 48.796C165.799 49.018 165.736 49.285 165.736 49.597C165.736 49.903 165.799 50.17 165.925 50.398C166.051 50.626 166.219 50.8 166.429 50.92C166.645 51.04 166.888 51.1 167.158 51.1ZM173.129 52.09C172.733 52.09 172.379 52.03 172.067 51.91C171.755 51.79 171.485 51.607 171.257 51.361C171.035 51.109 170.864 50.791 170.744 50.407C170.624 50.023 170.564 49.567 170.564 49.039C170.564 48.655 170.597 48.304 170.663 47.986C170.729 47.668 170.828 47.383 170.96 47.131C171.092 46.873 171.257 46.645 171.455 46.447C171.659 46.249 171.896 46.084 172.166 45.952C172.436 45.82 172.742 45.718 173.084 45.646L175.316 45.169L175.478 46.177L173.453 46.591C173.339 46.615 173.201 46.651 173.039 46.699C172.883 46.741 172.721 46.807 172.553 46.897C172.391 46.981 172.238 47.104 172.094 47.266C171.956 47.422 171.842 47.626 171.752 47.878C171.668 48.124 171.626 48.433 171.626 48.805C171.626 48.919 171.629 49.006 171.635 49.066C171.647 49.12 171.656 49.18 171.662 49.246C171.674 49.306 171.68 49.396 171.68 49.516L171.257 49.075C171.377 48.769 171.542 48.508 171.752 48.292C171.968 48.07 172.217 47.902 172.499 47.788C172.787 47.668 173.099 47.608 173.435 47.608C173.885 47.608 174.284 47.701 174.632 47.887C174.98 48.073 175.253 48.334 175.451 48.67C175.649 49.006 175.748 49.387 175.748 49.813C175.748 50.257 175.64 50.65 175.424 50.992C175.208 51.334 174.902 51.604 174.506 51.802C174.116 51.994 173.657 52.09 173.129 52.09ZM173.219 51.181C173.489 51.181 173.726 51.124 173.93 51.01C174.14 50.89 174.302 50.728 174.416 50.524C174.536 50.32 174.596 50.092 174.596 49.84C174.596 49.588 174.536 49.369 174.416 49.183C174.302 48.991 174.14 48.838 173.93 48.724C173.726 48.61 173.483 48.553 173.201 48.553C172.931 48.553 172.688 48.607 172.472 48.715C172.262 48.823 172.097 48.973 171.977 49.165C171.863 49.351 171.806 49.567 171.806 49.813C171.806 50.065 171.866 50.296 171.986 50.506C172.106 50.716 172.271 50.881 172.481 51.001C172.697 51.121 172.943 51.181 173.219 51.181ZM176.083 51.991L176.137 51.046C176.179 51.052 176.218 51.058 176.254 51.064C176.29 51.07 176.323 51.073 176.353 51.073C176.539 51.073 176.683 51.016 176.785 50.902C176.887 50.788 176.962 50.635 177.01 50.443C177.064 50.245 177.1 50.026 177.118 49.786C177.142 49.54 177.16 49.294 177.172 49.048L177.253 47.194H181.141V52H180.016V47.842L180.277 48.148H177.991L178.234 47.833L178.171 49.102C178.153 49.528 178.117 49.924 178.063 50.29C178.015 50.65 177.937 50.965 177.829 51.235C177.727 51.505 177.583 51.715 177.397 51.865C177.217 52.015 176.986 52.09 176.704 52.09C176.614 52.09 176.515 52.081 176.407 52.063C176.305 52.045 176.197 52.021 176.083 51.991ZM185.572 52V51.028L185.509 50.821V49.12C185.509 48.79 185.41 48.535 185.212 48.355C185.014 48.169 184.714 48.076 184.312 48.076C184.042 48.076 183.775 48.118 183.511 48.202C183.253 48.286 183.034 48.403 182.854 48.553L182.413 47.734C182.671 47.536 182.977 47.389 183.331 47.293C183.691 47.191 184.063 47.14 184.447 47.14C185.143 47.14 185.68 47.308 186.058 47.644C186.442 47.974 186.634 48.487 186.634 49.183V52H185.572ZM184.06 52.063C183.7 52.063 183.385 52.003 183.115 51.883C182.845 51.757 182.635 51.586 182.485 51.37C182.341 51.148 182.269 50.899 182.269 50.623C182.269 50.353 182.332 50.11 182.458 49.894C182.59 49.678 182.803 49.507 183.097 49.381C183.391 49.255 183.781 49.192 184.267 49.192H185.662V49.939H184.348C183.964 49.939 183.706 50.002 183.574 50.128C183.442 50.248 183.376 50.398 183.376 50.578C183.376 50.782 183.457 50.944 183.619 51.064C183.781 51.184 184.006 51.244 184.294 51.244C184.57 51.244 184.816 51.181 185.032 51.055C185.254 50.929 185.413 50.743 185.509 50.497L185.698 51.172C185.59 51.454 185.395 51.673 185.113 51.829C184.837 51.985 184.486 52.063 184.06 52.063ZM190.213 52.063C189.709 52.063 189.259 51.958 188.863 51.748C188.473 51.532 188.167 51.238 187.945 50.866C187.723 50.494 187.612 50.071 187.612 49.597C187.612 49.117 187.723 48.694 187.945 48.328C188.167 47.956 188.473 47.665 188.863 47.455C189.259 47.245 189.709 47.14 190.213 47.14C190.681 47.14 191.092 47.236 191.446 47.428C191.806 47.614 192.079 47.89 192.265 48.256L191.401 48.76C191.257 48.532 191.08 48.364 190.87 48.256C190.666 48.148 190.444 48.094 190.204 48.094C189.928 48.094 189.679 48.154 189.457 48.274C189.235 48.394 189.061 48.568 188.935 48.796C188.809 49.018 188.746 49.285 188.746 49.597C188.746 49.909 188.809 50.179 188.935 50.407C189.061 50.629 189.235 50.8 189.457 50.92C189.679 51.04 189.928 51.1 190.204 51.1C190.444 51.1 190.666 51.046 190.87 50.938C191.08 50.83 191.257 50.662 191.401 50.434L192.265 50.938C192.079 51.298 191.806 51.577 191.446 51.775C191.092 51.967 190.681 52.063 190.213 52.063ZM194.219 52V47.878L194.48 48.148H192.527V47.194H197.027V48.148H195.083L195.344 47.878V52H194.219ZM200.255 48.778C200.873 48.778 201.344 48.916 201.668 49.192C201.992 49.468 202.154 49.858 202.154 50.362C202.154 50.884 201.974 51.292 201.614 51.586C201.254 51.874 200.747 52.015 200.093 52.009L197.843 52V47.194H198.968V48.769L200.255 48.778ZM199.994 51.181C200.324 51.187 200.576 51.118 200.75 50.974C200.924 50.83 201.011 50.62 201.011 50.344C201.011 50.068 200.924 49.87 200.75 49.75C200.582 49.624 200.33 49.558 199.994 49.552L198.968 49.543V51.172L199.994 51.181ZM85.475 63V58.194H89.165V59.148H86.339L86.6 58.896V63H85.475ZM89.8688 63.063C89.6648 63.063 89.4908 62.994 89.3468 62.856C89.2028 62.712 89.1308 62.532 89.1308 62.316C89.1308 62.088 89.2028 61.908 89.3468 61.776C89.4908 61.638 89.6648 61.569 89.8688 61.569C90.0728 61.569 90.2468 61.638 90.3908 61.776C90.5348 61.908 90.6068 62.088 90.6068 62.316C90.6068 62.532 90.5348 62.712 90.3908 62.856C90.2468 62.994 90.0728 63.063 89.8688 63.063ZM96.2372 62.46V57.69H93.7712L93.7262 58.806C93.7082 59.226 93.6812 59.625 93.6452 60.003C93.6152 60.375 93.5642 60.714 93.4922 61.02C93.4262 61.326 93.3332 61.581 93.2132 61.785C93.0932 61.989 92.9462 62.124 92.7722 62.19L91.5122 62.01C91.7402 62.022 91.9262 61.944 92.0702 61.776C92.2202 61.608 92.3372 61.374 92.4212 61.074C92.5052 60.774 92.5682 60.423 92.6102 60.021C92.6522 59.613 92.6822 59.172 92.7002 58.698L92.7722 56.7H97.3892V62.46H96.2372ZM91.2962 64.341L91.3052 62.01H98.2982V64.341H97.2182V63H92.3852V64.341H91.2962ZM100.681 63.081C100.315 63.081 99.9516 63.039 99.5916 62.955C99.2376 62.865 98.9166 62.739 98.6286 62.577L98.9436 61.74C99.1776 61.872 99.4416 61.974 99.7356 62.046C100.03 62.118 100.324 62.154 100.618 62.154C100.87 62.154 101.086 62.13 101.266 62.082C101.446 62.028 101.584 61.95 101.68 61.848C101.782 61.746 101.833 61.629 101.833 61.497C101.833 61.305 101.749 61.161 101.581 61.065C101.419 60.963 101.185 60.912 100.879 60.912H99.9516V60.156H100.789C100.981 60.156 101.143 60.135 101.275 60.093C101.413 60.051 101.518 59.988 101.59 59.904C101.662 59.82 101.698 59.721 101.698 59.607C101.698 59.493 101.653 59.394 101.563 59.31C101.479 59.22 101.356 59.154 101.194 59.112C101.032 59.064 100.837 59.04 100.609 59.04C100.369 59.04 100.12 59.07 99.8616 59.13C99.6096 59.19 99.3516 59.277 99.0876 59.391L98.7996 58.563C99.1056 58.425 99.4026 58.32 99.6906 58.248C99.9846 58.17 100.276 58.128 100.564 58.122C101.002 58.104 101.392 58.149 101.734 58.257C102.076 58.365 102.346 58.521 102.544 58.725C102.742 58.929 102.841 59.169 102.841 59.445C102.841 59.673 102.769 59.88 102.625 60.066C102.487 60.246 102.295 60.387 102.049 60.489C101.809 60.591 101.533 60.642 101.221 60.642L101.257 60.399C101.791 60.399 102.211 60.507 102.517 60.723C102.823 60.933 102.976 61.221 102.976 61.587C102.976 61.881 102.877 62.142 102.679 62.37C102.481 62.592 102.208 62.766 101.86 62.892C101.518 63.018 101.125 63.081 100.681 63.081ZM106.375 63.063C105.841 63.063 105.373 62.958 104.971 62.748C104.575 62.532 104.266 62.238 104.044 61.866C103.828 61.494 103.72 61.071 103.72 60.597C103.72 60.117 103.825 59.694 104.035 59.328C104.251 58.956 104.545 58.665 104.917 58.455C105.295 58.245 105.724 58.14 106.204 58.14C106.672 58.14 107.089 58.242 107.455 58.446C107.821 58.65 108.109 58.938 108.319 59.31C108.529 59.682 108.634 60.12 108.634 60.624C108.634 60.672 108.631 60.726 108.625 60.786C108.625 60.846 108.622 60.903 108.616 60.957H104.611V60.21H108.022L107.581 60.444C107.587 60.168 107.53 59.925 107.41 59.715C107.29 59.505 107.125 59.34 106.915 59.22C106.711 59.1 106.474 59.04 106.204 59.04C105.928 59.04 105.685 59.1 105.475 59.22C105.271 59.34 105.109 59.508 104.989 59.724C104.875 59.934 104.818 60.183 104.818 60.471V60.651C104.818 60.939 104.884 61.194 105.016 61.416C105.148 61.638 105.334 61.809 105.574 61.929C105.814 62.049 106.09 62.109 106.402 62.109C106.672 62.109 106.915 62.067 107.131 61.983C107.347 61.899 107.539 61.767 107.707 61.587L108.31 62.28C108.094 62.532 107.821 62.727 107.491 62.865C107.167 62.997 106.795 63.063 106.375 63.063ZM112.529 63.063C112.139 63.063 111.782 62.973 111.458 62.793C111.14 62.613 110.885 62.343 110.693 61.983C110.507 61.617 110.414 61.155 110.414 60.597C110.414 60.033 110.504 59.571 110.684 59.211C110.87 58.851 111.122 58.584 111.44 58.41C111.758 58.23 112.121 58.14 112.529 58.14C113.003 58.14 113.42 58.242 113.78 58.446C114.146 58.65 114.434 58.935 114.644 59.301C114.86 59.667 114.968 60.099 114.968 60.597C114.968 61.095 114.86 61.53 114.644 61.902C114.434 62.268 114.146 62.553 113.78 62.757C113.42 62.961 113.003 63.063 112.529 63.063ZM109.865 64.746V58.194H110.936V59.328L110.9 60.606L110.99 61.884V64.746H109.865ZM112.403 62.1C112.673 62.1 112.913 62.04 113.123 61.92C113.339 61.8 113.51 61.626 113.636 61.398C113.762 61.17 113.825 60.903 113.825 60.597C113.825 60.285 113.762 60.018 113.636 59.796C113.51 59.568 113.339 59.394 113.123 59.274C112.913 59.154 112.673 59.094 112.403 59.094C112.133 59.094 111.89 59.154 111.674 59.274C111.458 59.394 111.287 59.568 111.161 59.796C111.035 60.018 110.972 60.285 110.972 60.597C110.972 60.903 111.035 61.17 111.161 61.398C111.287 61.626 111.458 61.8 111.674 61.92C111.89 62.04 112.133 62.1 112.403 62.1ZM121.662 63L120.258 60.696L121.176 60.129L123.003 63H121.662ZM119.349 61.074V60.138H120.96V61.074H119.349ZM121.284 60.732L120.222 60.606L121.68 58.194H122.877L121.284 60.732ZM116.586 63H115.254L117.072 60.129L117.99 60.696L116.586 63ZM119.682 63H118.566V58.194H119.682V63ZM118.899 61.074H117.297V60.138H118.899V61.074ZM116.964 60.732L115.371 58.194H116.568L118.017 60.606L116.964 60.732ZM123.839 63V58.194H124.964V61.362L127.619 58.194H128.645V63H127.52V59.832L124.874 63H123.839ZM130.159 63V58.194H131.284V60.147H133.705V58.194H134.83V63H133.705V61.101H131.284V63H130.159ZM138.524 63.063C138.02 63.063 137.57 62.958 137.174 62.748C136.784 62.532 136.478 62.238 136.256 61.866C136.034 61.494 135.923 61.071 135.923 60.597C135.923 60.117 136.034 59.694 136.256 59.328C136.478 58.956 136.784 58.665 137.174 58.455C137.57 58.245 138.02 58.14 138.524 58.14C138.992 58.14 139.403 58.236 139.757 58.428C140.117 58.614 140.39 58.89 140.576 59.256L139.712 59.76C139.568 59.532 139.391 59.364 139.181 59.256C138.977 59.148 138.755 59.094 138.515 59.094C138.239 59.094 137.99 59.154 137.768 59.274C137.546 59.394 137.372 59.568 137.246 59.796C137.12 60.018 137.057 60.285 137.057 60.597C137.057 60.909 137.12 61.179 137.246 61.407C137.372 61.629 137.546 61.8 137.768 61.92C137.99 62.04 138.239 62.1 138.515 62.1C138.755 62.1 138.977 62.046 139.181 61.938C139.391 61.83 139.568 61.662 139.712 61.434L140.576 61.938C140.39 62.298 140.117 62.577 139.757 62.775C139.403 62.967 138.992 63.063 138.524 63.063ZM145.014 63L143.277 60.696L144.195 60.129L146.337 63H145.014ZM141.567 63V58.194H142.692V63H141.567ZM142.359 61.074V60.138H143.988V61.074H142.359ZM144.303 60.732L143.25 60.606L145.014 58.194H146.22L144.303 60.732Z" fill="#383489"/>
</svg>
