<svg width="34" height="34" viewBox="0 0 34 34" fill="none" xmlns="http://www.w3.org/2000/svg">
<g clip-path="url(#clip0_163_260)">
<path d="M33.5264 16.849C28.3455 10.5695 22.775 7.48178 16.969 7.63056C7.60175 7.89242 1.15371 16.5201 0.883678 16.8868C0.871209 16.904 0.862609 16.9229 0.851859 16.941C0.84283 16.9548 0.83466 16.969 0.82649 16.984C0.807141 17.0184 0.790802 17.0528 0.777042 17.0885C0.770592 17.1057 0.765002 17.1229 0.759413 17.1401C0.748663 17.1741 0.739633 17.208 0.733184 17.2424C0.728884 17.2648 0.726304 17.2871 0.724154 17.3099C0.721144 17.3392 0.718994 17.3684 0.718994 17.3981C0.718994 17.4273 0.721144 17.4566 0.724154 17.4858C0.726734 17.5086 0.729314 17.5305 0.733184 17.5533C0.739633 17.5877 0.748663 17.6217 0.759413 17.6556C0.765002 17.6728 0.770592 17.69 0.777042 17.7072C0.790802 17.7429 0.807571 17.7773 0.82649 17.8117C0.83466 17.8263 0.8424 17.8401 0.851859 17.8547C0.862609 17.8724 0.871209 17.8917 0.883678 17.9089C1.15371 18.2761 7.60175 26.9033 16.969 27.1652C17.1139 27.169 17.2579 27.1712 17.402 27.1712C23.0515 27.1712 28.474 24.0697 33.5264 17.9467C33.6592 17.7859 33.7194 17.5911 33.719 17.3981C33.7194 17.2046 33.6592 17.0098 33.5264 16.849ZM17.0274 25.4465C9.74436 25.2483 4.17908 19.2044 2.67542 17.3981C4.17908 15.5917 9.74393 9.54743 17.0274 9.3492C22.1107 9.21634 27.0482 11.9244 31.7333 17.3981C27.0486 22.8722 22.1159 25.5936 17.0274 25.4465Z" fill="#383489"/>
<path d="M17.6496 11.7365C14.5275 11.7365 11.988 14.2759 11.988 17.3976C11.988 20.5197 14.5275 23.0592 17.6496 23.0592C20.7717 23.0592 23.3112 20.5197 23.3112 17.3976C23.3112 14.2759 20.7717 11.7365 17.6496 11.7365ZM17.6496 21.3393C15.4761 21.3393 13.708 19.5712 13.708 17.3976C13.708 15.2245 15.4761 13.4564 17.6496 13.4564C19.8232 13.4564 21.5913 15.2245 21.5913 17.3976C21.5913 19.5708 19.8232 21.3393 17.6496 21.3393Z" fill="#383489"/>
</g>
<defs>
<clipPath id="clip0_163_260">
<rect width="33" height="33" fill="white" transform="translate(0.718994 0.898315)"/>
</clipPath>
</defs>
</svg>
