<svg width="33" height="33" viewBox="0 0 33 33" fill="none" xmlns="http://www.w3.org/2000/svg">
<path d="M28.133 24.9843L23.056 19.9073C24.105 18.3263 24.719 16.4333 24.719 14.3983C24.719 8.88432 20.233 4.39832 14.719 4.39832C9.20499 4.39832 4.71899 8.88432 4.71899 14.3983C4.71899 19.9123 9.20499 24.3983 14.719 24.3983C16.754 24.3983 18.647 23.7843 20.228 22.7353L25.305 27.8123C26.085 28.5933 27.353 28.5933 28.133 27.8123C28.914 27.0313 28.914 25.7653 28.133 24.9843ZM7.71899 14.3983C7.71899 10.5383 10.859 7.39832 14.719 7.39832C18.579 7.39832 21.719 10.5383 21.719 14.3983C21.719 18.2583 18.579 21.3983 14.719 21.3983C10.859 21.3983 7.71899 18.2583 7.71899 14.3983Z" fill="#383489"/>
</svg>
